<?xml version="1.0" encoding="utf-8"?>
<!-- Generator: Adobe Illustrator 23.0.1, SVG Export Plug-In . SVG Version: 6.00 Build 0)  -->
<svg version="1.1" id="Слой_1" xmlns="http://www.w3.org/2000/svg" xmlns:xlink="http://www.w3.org/1999/xlink" x="0px" y="0px"
	 viewBox="0 0 128 128" style="enable-background:new 0 0 128 128;" xml:space="preserve">
<style type="text/css">
	.st0{fill:#00F1B7;}
	.st1{fill:#E8E7E7;}
	.st2{fill:#8B9093;}
	.st3{fill:#FF1191;}
	.st4{fill:#252525;}
	.st5{fill:#9014FF;}
	.st6{fill:#090000;}
	.st7{fill:#202020;}
</style>
<circle class="st0" cx="64" cy="64" r="62"/>
<g>
	<g>
		<path class="st1" d="M126,64c0-19.1-8.6-36.1-22.2-47.5H57.3c-7.4,0-13.3,6-13.3,13.3v73.3c0,7.4,6,13.3,13.3,13.3H97
			C114.4,105.5,126,86.1,126,64z"/>
	</g>
	<g>
		<path class="st2" d="M103.8,16.5h-48c-6.5,0-11.8,5.3-11.8,11.8v17.6h79.3C119.8,34.3,112.9,24.1,103.8,16.5z"/>
	</g>
	<g>
		<circle class="st3" cx="57.8" cy="30.7" r="5.9"/>
	</g>
	<g>
		<circle class="st0" cx="90.2" cy="30.7" r="5.9"/>
		<path class="st4" d="M90.2,24.2c-3.6,0-6.5,2.9-6.5,6.5s2.9,6.5,6.5,6.5s6.5-2.9,6.5-6.5S93.8,24.2,90.2,24.2z M90.2,35.9
			c-2.9,0-5.2-2.3-5.2-5.2s2.3-5.2,5.2-5.2s5.2,2.3,5.2,5.2S93.1,35.9,90.2,35.9z"/>
	</g>
	<g>
		<circle class="st5" cx="74" cy="30.7" r="5.9"/>
	</g>
	<g>
		<path class="st6" d="M57.8,23.8c-3.8,0-6.9,3.1-6.9,6.9s3.1,6.9,6.9,6.9s6.9-3.1,6.9-6.9S61.6,23.8,57.8,23.8z M57.8,35.6
			c-2.7,0-4.9-2.2-4.9-4.9s2.2-4.9,4.9-4.9s4.9,2.2,4.9,4.9C62.7,33.4,60.5,35.6,57.8,35.6z"/>
	</g>
	<g>
		<path class="st4" d="M90.2,23.8c-3.8,0-6.9,3.1-6.9,6.9s3.1,6.9,6.9,6.9s6.9-3.1,6.9-6.9S94,23.8,90.2,23.8z M90.2,35.6
			c-2.7,0-4.9-2.2-4.9-4.9s2.2-4.9,4.9-4.9s4.9,2.2,4.9,4.9C95.1,33.4,92.9,35.6,90.2,35.6z"/>
	</g>
	<g>
		<path class="st4" d="M74,23.8c-3.8,0-6.9,3.1-6.9,6.9s3.1,6.9,6.9,6.9s6.9-3.1,6.9-6.9S77.8,23.8,74,23.8z M74,35.6
			c-2.7,0-4.9-2.2-4.9-4.9s2.2-4.9,4.9-4.9s4.9,2.2,4.9,4.9C78.9,33.4,76.7,35.6,74,35.6z"/>
	</g>
	<g>
		<path class="st7" d="M44,44.9v2h79.6c-0.2-0.7-0.4-1.3-0.6-2H44z"/>
	</g>
	<g>
		<path class="st4" d="M57.3,98.2c-0.6,0-1,0.4-1,1s0.4,1,1,1h57c0.5-0.7,0.9-1.3,1.4-2H57.3z"/>
	</g>
	<g>
		<path class="st4" d="M90.7,58.2H57.3c-0.6,0-1,0.4-1,1s0.4,1,1,1h33.3c0.6,0,1-0.4,1-1S91.2,58.2,90.7,58.2z"/>
	</g>
	<g>
		<path class="st4" d="M90.7,71.6H57.3c-0.6,0-1,0.4-1,1s0.4,1,1,1h33.3c0.6,0,1-0.4,1-1S91.2,71.6,90.7,71.6z"/>
	</g>
	<g>
		<path class="st4" d="M90.7,84.9H57.3c-0.6,0-1,0.4-1,1s0.4,1,1,1h33.3c0.6,0,1-0.4,1-1S91.2,84.9,90.7,84.9z"/>
	</g>
	<g>
		<path class="st4" d="M57.3,115.5c-6.8,0-12.3-5.5-12.3-12.3V29.8c0-6.8,5.5-12.3,12.3-12.3H105c-0.8-0.7-1.6-1.4-2.4-2H57.3
			c-7.9,0-14.3,6.4-14.3,14.3v73.3c0,7.9,6.4,14.3,14.3,14.3h38c1.1-0.6,2.2-1.3,3.2-2L57.3,115.5L57.3,115.5z"/>
	</g>
</g>
<g>
	<path class="st1" d="M107,24.8c-3.2,0-5.9,2.6-5.9,5.9c0,3.2,2.6,5.9,5.9,5.9h12.6c-2.1-4.2-4.6-8.2-7.6-11.8H107z"/>
</g>
<g>
	<path class="st4" d="M107,35.6c-2.7,0-4.9-2.2-4.9-4.9s2.2-4.9,4.9-4.9h5.9c-0.5-0.7-1.1-1.3-1.6-2H107c-3.8,0-6.9,3.1-6.9,6.9
		s3.1,6.9,6.9,6.9h13.1c-0.3-0.7-0.7-1.3-1-2H107z"/>
</g>
<g>
	<path class="st5" d="M125.8,59.2H104v26.7h18c2.6-6.8,4-14.2,4-21.9C126,62.4,125.9,60.8,125.8,59.2z"/>
</g>
<g>
	<path class="st7" d="M106.7,84.9c-0.9,0-1.7-0.7-1.7-1.7V61.9c0-0.9,0.7-1.7,1.7-1.7h19.2c0-0.7-0.1-1.3-0.2-2h-19.1
		c-2,0-3.7,1.6-3.7,3.7v21.3c0,2,1.6,3.7,3.7,3.7h14.9c0.3-0.7,0.5-1.3,0.8-2C122.3,84.9,106.7,84.9,106.7,84.9z"/>
</g>
</svg>
