<?xml version="1.0" encoding="utf-8"?>
<!-- Generator: Adobe Illustrator 23.0.1, SVG Export Plug-In . SVG Version: 6.00 Build 0)  -->
<svg version="1.1"
	 id="svg5349" xmlns:cc="http://creativecommons.org/ns#" xmlns:dc="http://purl.org/dc/elements/1.1/" xmlns:inkscape="http://www.inkscape.org/namespaces/inkscape" xmlns:rdf="http://www.w3.org/1999/02/22-rdf-syntax-ns#" xmlns:sodipodi="http://sodipodi.sourceforge.net/DTD/sodipodi-0.dtd" xmlns:svg="http://www.w3.org/2000/svg"
	 xmlns="http://www.w3.org/2000/svg" xmlns:xlink="http://www.w3.org/1999/xlink" x="0px" y="0px" viewBox="0 0 32 32"
	 style="enable-background:new 0 0 32 32;" xml:space="preserve">
<style type="text/css">
	.st0{fill:#9014FF;stroke:#373449;stroke-linecap:round;stroke-linejoin:round;}
	.st1{fill:#FF1191;stroke:#373449;stroke-linecap:round;stroke-linejoin:round;}
	.st2{fill:#00F1B7;stroke:#373449;stroke-linecap:round;stroke-linejoin:round;}
	.st3{fill:#B6E887;stroke:#373449;}
	.st4{fill:#B6E887;stroke:#373449;stroke-linecap:round;stroke-linejoin:round;}
	.st5{fill:none;stroke:#373449;}
	.st6{fill:none;stroke:#373449;stroke-width:1;}
	.st7{fill:none;stroke:#373449;stroke-linecap:round;stroke-linejoin:round;}
	.st8{fill:#FF1191;stroke:#373449;}
	.st9{fill:#FF1191;}
	.st10{fill:#373449;}
</style>
<g id="layer1" transform="translate(0,-1020.3622)">
	<g id="g8127" transform="translate(649.00006,262.00002)">
		<g id="g8396" transform="translate(-108.26196,-161.48967)">
			<g id="g9101" transform="translate(146.2619,-37.01035)">
				<path id="rect7466-9" class="st0" d="M-666.6,978.4h-16.9c-0.6,0-1-0.4-1-1v-15c0-0.6,0.4-1,1-1h22c0.6,0,1,0.4,1,1v13.9"/>
				<path id="rect6532-3-6" class="st1" d="M-684.4,974.4v3c0,0.6,0.4,1,1,1h22c0.6,0,1-0.4,1-1v-3H-684.4z"/>
				<path id="path7468-0" class="st2" d="M-675.5,978.4h6c-0.9,2.8,0.6,3.9,2,5h-10C-675.8,982.1-674.4,980.7-675.5,978.4z"/>
				<path id="path7470-4" class="st3" d="M-684.5,974.4h19.9 M-662.7,974.4h2.2"/>
				<path id="path7472-6" class="st4" d="M-679.5,983.4h14"/>
				<path id="path7480-3" class="st5" d="M-678.5,970.9v-4.5h3v4.5"/>
				<path id="path7482-7" class="st6" d="M-673.5,970.4v-4h3v4H-673.5z"/>
				<path id="path7484-6" class="st7" d="M-678,968.4h2"/>
				<path id="path7486-6" class="st5" d="M-665,966.4h-3.5v2h3v2h-3.5"/>
				<path id="path7488-0" class="st8" d="M-664.5,978.9v-6.5c0-0.6,0.4-1,1-1s1,0.4,1,1l0,4h4l0,2.1c0,2.1-1.8,3.9-4,3.9
					s-4-1.8-4-3.9l0-1.1c0-0.6,0.4-1,1-1h1"/>
				<rect id="rect8637" x="-666" y="976.9" class="st9" width="6.3" height="2"/>
				<rect id="rect8642" x="-664" y="973.9" class="st9" width="1" height="3"/>
				<circle id="path5699-7-8-8-0" class="st10" cx="-672.1" cy="976.3" r="0.7"/>
			</g>
		</g>
	</g>
</g>
</svg>
