<?xml version="1.0" encoding="utf-8"?>
<!-- Generator: Adobe Illustrator 23.0.1, SVG Export Plug-In . SVG Version: 6.00 Build 0)  -->
<svg version="1.1" id="Layer_1" xmlns="http://www.w3.org/2000/svg" xmlns:xlink="http://www.w3.org/1999/xlink" x="0px" y="0px"
	 viewBox="0 0 64 64" style="enable-background:new 0 0 64 64;" xml:space="preserve">
<style type="text/css">
	.st0{fill:#E5E5E5;}
	.st1{fill:#FF1191;}
	.st2{fill:#00F1B7;}
	.st3{fill:none;stroke:#2C3E50;stroke-width:2;stroke-linecap:round;stroke-linejoin:round;stroke-miterlimit:10;}
</style>
<path class="st0" d="M54,11v30c0,2.2-1.8,4-4,4H13c-2.2,0-4-1.8-4-4V11"/>
<rect x="37.5" y="29" class="st1" width="4.5" height="7"/>
<rect x="42" y="24" class="st1" width="4.8" height="12"/>
<rect x="28" y="44.2" class="st2" width="8" height="4.8"/>
<path class="st3" d="M54,11v30c0,2.2-1.8,4-4,4H13c-2.2,0-4-1.8-4-4V11"/>
<line class="st3" x1="6" y1="11" x2="57" y2="11"/>
<line class="st3" x1="32" y1="11" x2="32" y2="7"/>
<line class="st3" x1="32" y1="49" x2="39.2" y2="56.2"/>
<line class="st3" x1="32" y1="49" x2="24.4" y2="56.6"/>
<line class="st3" x1="28" y1="49" x2="36" y2="49"/>
<line class="st3" x1="46.8" y1="24" x2="46.8" y2="36"/>
<line class="st3" x1="42" y1="36" x2="42" y2="19.8"/>
<line class="st3" x1="37.5" y1="36" x2="37.5" y2="29"/>
<path class="st2" d="M15.2,31.1c0,0,0.4-3.5,1.8-2.7s0.5,7.4,2.6,4.8s1.9-9.1,3.5-9s1.1,11.5,2.9,11.5s5.5-16.3,5.5-16.3"/>
<path class="st3" d="M15.2,31.1c0,0,0.4-3.5,1.8-2.7s0.5,7.4,2.6,4.8s1.9-9.1,3.5-9s1.1,11.5,2.9,11.5s5.5-16.3,5.5-16.3"/>
</svg>
