<?xml version="1.0" encoding="utf-8"?>
<!-- Generator: Adobe Illustrator 23.0.1, SVG Export Plug-In . SVG Version: 6.00 Build 0)  -->
<svg version="1.1" id="Layer_1" xmlns="http://www.w3.org/2000/svg" xmlns:xlink="http://www.w3.org/1999/xlink" x="0px" y="0px"
	 viewBox="0 0 90 90" style="enable-background:new 0 0 90 90;" xml:space="preserve">
<style type="text/css">
	.st0{fill:#9014FF;}
	.st1{fill:#00F1B7;}
	.st2{fill:#FFE6E3;}
	.st3{fill:#E45544;}
	.st4{fill:#3F291E;}
	.st5{fill:#EFEAE1;}
	.st6{fill:#383128;}
	.st7{fill:none;}
</style>
<circle class="st0" cx="45" cy="45" r="45"/>
<g>
	<path class="st1" d="M62.1,21.6C57.3,18.1,51.4,16,45,16c-16,0-29,13-29,29s13,29,29,29s29-13,29-29c0-6.4-2.1-12.3-5.5-17"/>
	<path class="st1" d="M45,75c-16.5,0-30-13.5-30-30s13.5-30,30-30c6.4,0,12.5,2,17.7,5.8c0.4,0.3,0.5,1,0.2,1.4
		c-0.3,0.4-1,0.5-1.4,0.2C56.7,18.9,51,17,45,17c-15.4,0-28,12.6-28,28s12.6,28,28,28s28-12.6,28-28c0-6-1.8-11.6-5.3-16.5
		c-0.3-0.4-0.2-1.1,0.2-1.4c0.4-0.3,1.1-0.2,1.4,0.2C73,32.5,75,38.6,75,45C75,61.5,61.5,75,45,75z"/>
</g>
<g>
	<path class="st2" d="M45,67c-12.1,0-22-9.9-22-22s9.9-22,22-22c4.5,0,8.9,1.4,12.6,4c0.5,0.3,0.6,0.9,0.2,1.4
		c-0.3,0.5-0.9,0.6-1.4,0.2C53.1,26.2,49.1,25,45,25c-11,0-20,9-20,20s9,20,20,20s20-9,20-20c0-4.2-1.3-8.3-3.8-11.7
		c-0.3-0.4-0.2-1.1,0.2-1.4c0.5-0.3,1.1-0.2,1.4,0.2C65.6,35.9,67,40.3,67,45C67,57.1,57.1,67,45,67z"/>
</g>
<g>
	<path class="st3" d="M51.7,33.9c-2-1.2-4.3-1.9-6.7-1.9c-7.2,0-13,5.8-13,13s5.8,13,13,13s13-5.8,13-13c0-2.5-0.7-4.8-1.9-6.8"/>
	<path class="st4" d="M45,59c-7.7,0-14-6.3-14-14s6.3-14,14-14c2.6,0,5.1,0.7,7.2,2c0.5,0.3,0.6,0.9,0.3,1.4
		c-0.3,0.5-0.9,0.6-1.4,0.3c-1.9-1.1-4-1.7-6.2-1.7c-6.6,0-12,5.4-12,12s5.4,12,12,12s12-5.4,12-12c0-2.2-0.6-4.4-1.8-6.3
		c-0.3-0.5-0.1-1.1,0.3-1.4c0.5-0.3,1.1-0.1,1.4,0.3c1.4,2.2,2.1,4.7,2.1,7.3C59,52.7,52.7,59,45,59z"/>
</g>
<g>
	<path class="st5" d="M46.2,40.1C45.8,40,45.4,40,45,40c-2.8,0-5,2.2-5,5s2.2,5,5,5s5-2.2,5-5c0-0.4,0-0.8-0.1-1.2"/>
	<path class="st6" d="M45,51c-3.3,0-6-2.7-6-6s2.7-6,6-6c0.5,0,1,0.1,1.4,0.2c0.5,0.1,0.9,0.7,0.7,1.2s-0.7,0.9-1.2,0.7
		C45.6,41,45.3,41,45,41c-2.2,0-4,1.8-4,4s1.8,4,4,4s4-1.8,4-4c0-0.3,0-0.6-0.1-0.9c-0.1-0.5,0.2-1.1,0.7-1.2
		c0.5-0.1,1.1,0.2,1.2,0.7C50.9,44,51,44.5,51,45C51,48.3,48.3,51,45,51z"/>
</g>
<g>
	<line class="st7" x1="45" y1="45" x2="65" y2="25"/>
	<path class="st6" d="M45,46c-0.3,0-0.5-0.1-0.7-0.3c-0.4-0.4-0.4-1,0-1.4l20-20c0.4-0.4,1-0.4,1.4,0s0.4,1,0,1.4l-20,20
		C45.5,45.9,45.3,46,45,46z"/>
</g>
<g>
	<path class="st5" d="M64.8,30H60v-4.8c0-0.8,0.3-1.6,0.9-2.1L68,16v6h6l-7.1,7.1C66.3,29.7,65.6,30,64.8,30z"/>
	<path class="st6" d="M64.8,31H60c-0.6,0-1-0.4-1-1v-4.8c0-1.1,0.4-2.1,1.2-2.8l7.1-7.1c0.3-0.3,0.7-0.4,1.1-0.2
		c0.4,0.2,0.6,0.5,0.6,0.9v5h5c0.4,0,0.8,0.2,0.9,0.6c0.2,0.4,0.1,0.8-0.2,1.1l-7.1,7.1C66.8,30.6,65.8,31,64.8,31z M61,29h3.8
		c0.5,0,1-0.2,1.4-0.6l5.4-5.4H68c-0.6,0-1-0.4-1-1v-3.6l-5.4,5.4c-0.4,0.4-0.6,0.9-0.6,1.4V29z"/>
</g>
</svg>
