<?xml version="1.0" encoding="utf-8"?>
<!-- Generator: Adobe Illustrator 23.0.1, SVG Export Plug-In . SVG Version: 6.00 Build 0)  -->
<svg version="1.1" id="Layer_1" xmlns="http://www.w3.org/2000/svg" xmlns:xlink="http://www.w3.org/1999/xlink" x="0px" y="0px"
	 viewBox="0 0 512 512" style="enable-background:new 0 0 512 512;" xml:space="preserve">
<style type="text/css">
	.st0{fill:#FF1191;}
	.st1{fill:#9014FF;}
	.st2{fill:#00F1B7;}
	.st3{fill:#090200;}
</style>
<g id="hierarchy_1_">
	<path class="st0" d="M382.8,145.3c0,69.2-56.1,125.3-125.3,125.3s-125.3-56.1-125.3-125.3C132.2,76.1,188.3,20,257.5,20
		S382.8,76.1,382.8,145.3z"/>
	<path class="st1" d="M195.4,397.5c0,50.6-41,91.7-91.7,91.7s-91.7-41-91.7-91.7c0-50.6,41-91.7,91.7-91.7S195.4,346.9,195.4,397.5z
		"/>
	<path class="st1" d="M496.8,397.5c0,50.6-41,91.7-91.7,91.7c-50.6,0-91.7-41-91.7-91.7c0-50.6,41-91.7,91.7-91.7
		C455.7,305.8,496.8,346.9,496.8,397.5z"/>
	<polygon class="st2" points="295,215 289,186 249,202 226,186 214,213 169,230 179,256 196,265 236,275 273,275 313,269 346,230 	
		"/>
	<polygon class="st2" points="293.3,104 256,87.4 226,95.4 208,120 219.3,174.7 248.7,196.7 280,189.6 304,140 	"/>
	<polygon class="st2" points="137.3,441.9 133,421.1 104.3,432.6 87.8,421.1 79.2,440.5 46.9,452.7 54.1,471.3 66.3,477.8 95,485 
		121.6,485 150.3,480.7 173.9,452.7 	"/>
	<polygon class="st2" points="136.2,362.3 109.4,350.3 87.8,356 74.9,373.7 83.1,413 104.1,428.8 126.6,423.7 143.8,388.1 	"/>
	<polygon class="st2" points="436.4,445.4 432.1,424.6 403.4,436 386.9,424.6 378.3,443.9 346,456.1 353.2,474.8 365.4,481.3 
		394.1,488.4 420.6,488.4 449.3,484.1 473,456.1 	"/>
	<polygon class="st2" points="435.2,365.7 408.4,353.8 386.9,359.5 374,377.2 382.1,416.4 403.2,432.2 425.7,427.1 442.9,391.6 	"/>
	<path class="st3" d="M405.3,288c-18.1,0-35.1,4.5-50,12.4l-23.4-35.1c37.8-24.8,62.7-67.5,62.7-116c0-76.6-62.1-138.7-138.7-138.7
		c-76.6,0-138.7,62.1-138.7,138.7c0,48.4,24.8,91,62.4,115.8l-23.5,35c-14.8-7.8-31.7-12.2-49.6-12.2C47.8,288,0,335.7,0,394.6
		c0,58.9,47.8,106.7,106.7,106.7c58.9,0,106.7-47.8,106.7-106.7c0-33.3-15.3-63.1-39.3-82.7l24.4-36.4c17.5,8,37,12.5,57.5,12.5
		c20.4,0,39.8-4.4,57.2-12.3l24.4,36.6c-23.8,19.6-38.9,49.2-38.9,82.4c0,58.9,47.8,106.7,106.7,106.7
		c58.9,0,106.7-47.8,106.7-106.7C512,335.7,464.2,288,405.3,288z M51.6,459.9c4.8-1.6,8.1-3.1,10.4-4.2c0.8-0.4,1.5-0.7,1.9-0.9
		c12.9-4.9,21.1-9.9,26.1-15.9c5.8,3.9,11.7,6.2,16.6,6.2s10.8-2.3,16.6-6.2c5,6,13.2,11,26.1,15.9c0.4,0.1,1.1,0.5,1.9,0.9
		c2.3,1.1,5.5,2.7,10.4,4.2c-15.4,13-34.6,20.1-55,20.1C86.3,480,67,472.9,51.6,459.9z M120.4,412.8c-5.7,7-11.4,10.2-13.7,10.9
		c-2.3-0.7-8-3.9-13.7-10.9c-6.1-7.4-9.6-15.9-9.6-23.4c0-16,9.4-26.8,23.3-26.8s23.3,10.8,23.3,26.8
		C129.9,396.9,126.5,405.4,120.4,412.8z M192,394.6c0,17.5-5.2,34.2-14.9,48.3c-1.3-0.8-2.7-1.5-4.2-2l-0.6-0.2
		c-8.6-2.3-11.5-4.5-15.3-6c-13.6-5.2-17.1-8.9-18-10.6c0-0.1-0.1-0.1-0.1-0.2v-0.3c7.2-9.7,12.4-21.8,12.4-34.3
		c0-29-20-48.1-44.6-48.1c-24.6,0-44.6,19.1-44.6,48.1c0,12.5,5.1,24.6,12.4,34.2v0.3c0,0.1-0.1,0.1-0.1,0.2
		c-0.9,1.8-4.4,5.5-18,10.6c-3.8,1.5-6.7,3.7-15.3,6l-0.6,0.2c-1.5,0.5-2.9,1.2-4.2,2c-9.7-14.1-14.9-30.8-14.9-48.3
		c0-22.8,8.9-44.2,25-60.3s37.5-25,60.3-25c22.8,0,44.2,8.9,60.3,25C183.1,350.4,192,371.9,192,394.6z M173,66.4
		C195.2,44.2,224.7,32,256,32c31.4,0,60.8,12.2,83,34.4c22.2,22.2,34.4,51.6,34.4,83c0,26.8-8.9,52.2-25.3,72.8
		c-1.8-1.2-3.8-2.2-6-2.9l-0.8-0.2c-11.2-3-14.9-5.9-19.9-7.7c-17.6-6.7-22.2-11.5-23.4-13.8c0-0.1-0.1-0.2-0.1-0.2l-0.1-15.4
		c9.4-12.6,16.2-28.3,16.2-44.6c0-37.6-25.9-62.5-57.9-62.5c-32,0-57.9,24.8-57.9,62.5c0,16.3,6.7,32,16.1,44.6l-0.1,15.4
		c0,0.1-0.1,0.2-0.1,0.2c-1.2,2.3-5.8,7.1-23.4,13.8c-5,1.9-8.7,4.8-19.9,7.7l-0.8,0.2c-2.2,0.7-4.2,1.7-6,2.9
		c-16.4-20.6-25.3-46-25.3-72.8C138.7,118,150.9,88.5,173,66.4z M234.7,173.2c-9.7-11.1-15.3-24.3-15.3-36.1
		c0-12.5,3.8-23.1,11-30.6C237,99.7,246.1,96,256,96c9.9,0,19,3.8,25.6,10.6c7.2,7.5,11,18.1,11,30.6c0,11.8-5.6,25-15.3,36.1
		c-9.9,11.3-19.1,14.8-21.3,14.9C253.8,188.1,244.6,184.5,234.7,173.2z M179.8,238.6c7.4-2.2,12-4.4,15.4-6.1c1.2-0.6,2.2-1.1,3-1.4
		c19.5-7.4,29.9-14.6,34.7-24c0.3-0.6,0.5-1.1,0.7-1.4l1.7-3.8c7.2,4.7,14.5,7.5,20.7,7.5c6.2,0,13.4-2.7,20.6-7.4l1.8,3.9
		c0.2,0.3,0.4,0.8,0.6,1.3c4.8,9.4,15.2,16.6,34.8,24c0.7,0.3,1.7,0.7,2.9,1.3c3.5,1.6,8,3.8,15.4,6.1
		c-21.2,18.2-47.9,28.1-76.2,28.1C227.8,266.7,201.1,256.8,179.8,238.6z M345,334.3c16.1-16.1,37.5-25,60.3-25
		c22.8,0,44.2,8.9,60.3,25c16.1,16.1,25,37.5,25,60.3c0,17.5-5.2,34.2-14.9,48.3c-1.3-0.8-2.7-1.5-4.2-2l-0.6-0.2
		c-8.6-2.3-11.5-4.5-15.3-6c-13.6-5.2-17.1-8.9-18-10.6c0-0.1,0-0.1-0.1-0.2v-0.3c7.2-9.7,12.3-21.8,12.3-34.3
		c0-29-20-48.1-44.6-48.1s-44.6,19.1-44.6,48.1c0,12.5,5.1,24.6,12.3,34.2v0.3c0,0.1,0,0.1-0.1,0.2c-0.9,1.8-4.4,5.5-18,10.6
		c-3.8,1.5-6.7,3.7-15.3,6l-0.6,0.2c-1.5,0.5-2.9,1.2-4.2,2c-9.7-14.1-14.9-30.8-14.9-48.3C320,371.9,328.9,350.4,345,334.3z
		 M391.6,412.8c-6.1-7.4-9.6-15.9-9.6-23.4c0-16,9.3-26.8,23.3-26.8c13.9,0,23.3,10.8,23.3,26.8c0,7.4-3.5,16-9.6,23.4
		c-5.7,7-11.4,10.2-13.7,10.9C403.1,423,397.3,419.8,391.6,412.8z M350.3,459.9c4.8-1.6,8-3.1,10.4-4.2c0.8-0.4,1.5-0.7,1.9-0.9
		c12.9-4.9,21.1-9.9,26.1-15.9c5.8,3.9,11.7,6.2,16.6,6.2s10.8-2.3,16.6-6.2c5,6,13.2,11,26.1,15.9c0.4,0.1,1.1,0.5,1.9,0.9
		c2.3,1.1,5.6,2.7,10.4,4.2c-15.4,13-34.7,20.1-55,20.1C385,480,365.7,472.9,350.3,459.9z"/>
</g>
</svg>
