<?xml version="1.0" encoding="utf-8"?>
<!-- Generator: Adobe Illustrator 23.0.1, SVG Export Plug-In . SVG Version: 6.00 Build 0)  -->
<svg version="1.1" id="Layer_1" xmlns="http://www.w3.org/2000/svg" xmlns:xlink="http://www.w3.org/1999/xlink" x="0px" y="0px"
	 viewBox="0 0 90 90" style="enable-background:new 0 0 90 90;" xml:space="preserve">
<style type="text/css">
	.st0{fill:#FF1191;}
	.st1{fill:#CCD3D6;}
	.st2{fill:#E8EEEF;}
	.st3{fill:#FFFFFF;}
	.st4{fill:#232E38;}
	.st5{fill-rule:evenodd;clip-rule:evenodd;fill:#9014FF;}
	.st6{fill:#3F291E;}
</style>
<circle class="st0" cx="45" cy="45" r="45"/>
<path class="st1" d="M67,61H21c-1.1,0-2-0.9-2-2V29c0-1.1,0.9-2,2-2h46c1.1,0,2,0.9,2,2v30C69,60.1,68.1,61,67,61z"/>
<path class="st2" d="M21,61h46c0.3,0,0.6-0.1,0.9-0.2L50.7,44H36.1L19.5,60.3C19.9,60.7,20.4,61,21,61z"/>
<g>
	<path class="st3" d="M68.4,27.6L48.2,47c-2.3,2.2-6,2.2-8.3,0L19.6,27.6"/>
	<path class="st4" d="M44,49.7c-1.7,0-3.5-0.7-4.8-2L18.9,28.3c-0.4-0.4-0.4-1,0-1.4c0.4-0.4,1-0.4,1.4,0l20.3,19.4
		c1.9,1.9,5,1.9,6.9,0l20.3-19.4c0.4-0.4,1-0.4,1.4,0c0.4,0.4,0.4,1,0,1.4L48.8,47.7C47.5,49,45.7,49.7,44,49.7z"/>
</g>
<path class="st4" d="M19.6,61.4c-0.3,0-0.5-0.1-0.7-0.3c-0.4-0.4-0.4-1,0-1.4L36,43.3c0.4-0.4,1-0.4,1.4,0c0.4,0.4,0.4,1,0,1.4
	L20.3,61.1C20.1,61.3,19.8,61.4,19.6,61.4z"/>
<path class="st4" d="M43,62H21c-1.7,0-3-1.3-3-3V29c0-1.7,1.3-3,3-3h46c1.7,0,3,1.3,3,3v16c0,0.6-0.4,1-1,1s-1-0.4-1-1V29
	c0-0.6-0.4-1-1-1H21c-0.6,0-1,0.4-1,1v30c0,0.6,0.4,1,1,1h22c0.6,0,1,0.4,1,1S43.6,62,43,62z"/>
<g>
	<path class="st5" d="M61,55.5c-3.4-7.4-12.5-3.9-12,2.7c0.5,7,10.2,11.8,12,14.5c1.8-2.7,11.6-7.6,12-14.5
		C73.4,51.6,64.8,48.1,61,55.5z"/>
	<path class="st6" d="M61,73.7C61,73.7,61,73.7,61,73.7c-0.3,0-0.7-0.2-0.8-0.5c-0.4-0.7-1.8-1.7-3.1-2.8c-3.6-2.9-8.6-6.8-9-12.1
		c-0.2-2.1,0.5-4.1,1.9-5.6c1.4-1.5,3.3-2.4,5.3-2.4c2.3,0,4.3,1.1,5.8,3.2c1.5-2,3.6-3.2,5.8-3.2c1.9,0,3.8,0.8,5.1,2.2
		c1.4,1.5,2.1,3.5,2,5.7c-0.3,5.2-5.3,9.2-9,12.1c-1.4,1.1-2.7,2.1-3.2,2.8C61.6,73.5,61.3,73.7,61,73.7z M55.3,52.3
		c-1.4,0-2.8,0.6-3.9,1.7c-1,1.1-1.5,2.5-1.4,4.1c0.3,4.4,4.9,8,8.2,10.7c1.1,0.9,2.1,1.6,2.7,2.3c0.7-0.7,1.6-1.4,2.7-2.3
		c3.4-2.7,8-6.3,8.2-10.7c0.1-1.6-0.4-3.1-1.5-4.2c-1-1-2.3-1.6-3.6-1.6c-2,0-3.8,1.3-5,3.6c-0.2,0.3-0.5,0.5-0.9,0.5
		c-0.4,0-0.7-0.2-0.9-0.6C59.1,53.6,57.3,52.3,55.3,52.3z"/>
</g>
</svg>
